<svg width="45" height="41" viewBox="0 0 45 41" fill="none" xmlns="http://www.w3.org/2000/svg">
<path id="Ellipse 148" d="M4.30481 6.89674C1.91085 10.4625 0.628016 14.658 0.618522 18.9528C0.609029 23.2476 1.8733 27.4488 4.25147 31.025C6.62964 34.6013 10.0149 37.392 13.9791 39.0444C17.9434 40.6967 22.3086 41.1364 26.5227 40.3078C30.7368 39.4792 34.6106 37.4196 37.6542 34.3895C40.6978 31.3593 42.7745 27.4947 43.6217 23.2842C44.4689 19.0738 44.0485 14.7067 42.4137 10.7352C40.7789 6.7637 38.0032 3.36615 34.4375 0.972196L31.9185 4.72416C34.7421 6.61991 36.9402 9.31039 38.2348 12.4554C39.5293 15.6004 39.8622 19.0586 39.1913 22.3928C38.5205 25.727 36.8759 28.7873 34.4658 31.1869C32.0556 33.5865 28.988 35.2174 25.6508 35.8736C22.3137 36.5297 18.857 36.1815 15.7178 34.8731C12.5785 33.5646 9.89778 31.3546 8.01454 28.5226C6.13129 25.6906 5.13013 22.3638 5.13765 18.9628C5.14517 15.5618 6.16103 12.2394 8.05677 9.41574L4.30481 6.89674Z" fill="#6A4C93"/>
</svg>
