<svg width="44" height="41" viewBox="0 0 44 41" fill="none" xmlns="http://www.w3.org/2000/svg">
<path id="Ellipse 148" d="M3.9714 6.89674C1.57745 10.4625 0.294611 14.658 0.285118 18.9528C0.275624 23.2476 1.5399 27.4488 3.91807 31.025C6.29624 34.6013 9.68148 37.392 13.6457 39.0444C17.61 40.6967 21.9752 41.1364 26.1893 40.3078C30.4034 39.4792 34.2772 37.4196 37.3208 34.3895C40.3644 31.3593 42.4411 27.4947 43.2883 23.2842C44.1355 19.0738 43.7151 14.7067 42.0803 10.7352C40.4455 6.7637 37.6698 3.36615 34.104 0.972196L31.5851 4.72416C34.4087 6.61991 36.6068 9.31039 37.9014 12.4554C39.1959 15.6004 39.5288 19.0586 38.8579 22.3928C38.187 25.727 36.5425 28.7873 34.1324 31.1869C31.7222 33.5865 28.6546 35.2174 25.3174 35.8736C21.9803 36.5297 18.5236 36.1815 15.3844 34.8731C12.2451 33.5646 9.56438 31.3546 7.68113 28.5226C5.79789 25.6906 4.79673 22.3638 4.80424 18.9628C4.81176 15.5618 5.82762 12.2394 7.72337 9.41574L3.9714 6.89674Z" fill="#F6944D"/>
</svg>
