<svg width="44" height="44" viewBox="0 0 44 44" fill="none" xmlns="http://www.w3.org/2000/svg">
<path id="Ellipse 148" d="M0.289966 21.5387C0.198735 25.8326 1.38282 30.057 3.6925 33.6779C6.00217 37.2988 9.33369 40.1535 13.2658 41.8809C17.1979 43.6084 21.5539 44.1311 25.783 43.3829C30.0121 42.6347 33.9244 40.6492 37.0251 37.6775C40.1259 34.7058 42.2757 30.8814 43.2029 26.6878C44.1301 22.4943 43.7929 18.12 42.234 14.1181C40.6751 10.1162 37.9645 6.66641 34.445 4.20503C30.9255 1.74364 26.7551 0.381189 22.4613 0.289958L22.3653 4.80807C25.7655 4.88032 29.068 5.95923 31.855 7.90837C34.6421 9.85751 36.7886 12.5893 38.023 15.7584C39.2575 18.9275 39.5245 22.3914 38.7903 25.7122C38.0561 29.033 36.3537 32.0616 33.8982 34.4148C31.4428 36.768 28.3447 38.3403 24.9957 38.9328C21.6467 39.5253 18.1972 39.1114 15.0835 37.7435C11.9697 36.3755 9.33151 34.1149 7.50251 31.2476C5.6735 28.3803 4.73584 25.035 4.80808 21.6347L0.289966 21.5387Z" fill="#5B6BE1"/>
</svg>
