<svg width="10" height="11" viewBox="0 0 10 11" fill="none" xmlns="http://www.w3.org/2000/svg">
<g id="vuesax/linear/trash">
<g id="trash">
<path id="Vector" d="M8.75 2.99166C7.3625 2.85416 5.96667 2.78333 4.575 2.78333C3.75 2.78333 2.925 2.82499 2.1 2.90833L1.25 2.99166" stroke="#7E7E7E" stroke-width="0.8" stroke-linecap="round" stroke-linejoin="round"/>
<path id="Vector_2" d="M3.54175 2.57084L3.63341 2.02501C3.70008 1.62918 3.75008 1.33334 4.45425 1.33334H5.54591C6.25008 1.33334 6.30425 1.64584 6.36675 2.02918L6.45841 2.57084" stroke="#7E7E7E" stroke-width="0.8" stroke-linecap="round" stroke-linejoin="round"/>
<path id="Vector_3" d="M7.85409 4.30832L7.58325 8.50415C7.53742 9.15832 7.49992 9.66665 6.33742 9.66665H3.66242C2.49992 9.66665 2.46242 9.15832 2.41659 8.50415L2.14575 4.30832" stroke="#7E7E7E" stroke-width="0.8" stroke-linecap="round" stroke-linejoin="round"/>
<path id="Vector_4" d="M4.3042 7.375H5.6917" stroke="#7E7E7E" stroke-width="0.8" stroke-linecap="round" stroke-linejoin="round"/>
<path id="Vector_5" d="M3.95825 5.70834H6.04159" stroke="#7E7E7E" stroke-width="0.8" stroke-linecap="round" stroke-linejoin="round"/>
</g>
</g>
</svg>
