<svg width="37" height="44" viewBox="0 0 37 44" fill="none" xmlns="http://www.w3.org/2000/svg">
<path id="Ellipse 147" d="M36.7335 5.45724C34.1776 3.28391 31.1529 1.73235 27.8967 0.924305C24.6405 0.116256 21.2414 0.0736907 17.966 0.799947C14.6906 1.52621 11.628 3.00153 9.01848 5.11018C6.409 7.21883 4.3236 9.90344 2.9259 12.9534C1.5282 16.0034 0.856209 19.3357 0.962655 22.689C1.0691 26.0422 1.95109 29.3252 3.53942 32.2804C5.12775 35.2356 7.37921 37.7825 10.1172 39.7214C12.8551 41.6603 16.0051 42.9384 19.32 43.4555L20.0129 39.0136C17.3843 38.6036 14.8864 37.5901 12.7153 36.0526C10.5442 34.5151 8.75881 32.4954 7.49931 30.1521C6.23982 27.8087 5.54043 25.2054 5.45602 22.5463C5.37161 19.8873 5.90448 17.2448 7.01281 14.8263C8.12115 12.4078 9.77481 10.279 11.8441 8.60687C13.9133 6.93477 16.3418 5.76488 18.9391 5.18898C21.5365 4.61308 24.2319 4.64683 26.814 5.28759C29.396 5.92835 31.7945 7.15869 33.8212 8.88207L36.7335 5.45724Z" fill="#F2F6FC"/>
</svg>
