<svg width="45" height="41" viewBox="0 0 45 41" fill="none" xmlns="http://www.w3.org/2000/svg">
<path id="Ellipse 148" d="M4.63806 6.89674C2.2441 10.4625 0.961268 14.658 0.951774 18.9528C0.942281 23.2476 2.20656 27.4488 4.58472 31.025C6.96289 34.6013 10.3481 37.392 14.3124 39.0444C18.2766 40.6967 22.6418 41.1364 26.8559 40.3078C31.0701 39.4792 34.9439 37.4196 37.9875 34.3895C41.031 31.3593 43.1077 27.4947 43.9549 23.2842C44.8021 19.0738 44.3817 14.7067 42.747 10.7352C41.1122 6.7637 38.3364 3.36615 34.7707 0.972196L32.2517 4.72416C35.0754 6.61991 37.2734 9.31039 38.568 12.4554C39.8626 15.6004 40.1955 19.0586 39.5246 22.3928C38.8537 25.727 37.2092 28.7873 34.799 31.1869C32.3888 33.5865 29.3212 35.2174 25.9841 35.8736C22.647 36.5297 19.1902 36.1815 16.051 34.8731C12.9118 33.5646 10.231 31.3546 8.34779 28.5226C6.46455 25.6906 5.46338 22.3638 5.4709 18.9628C5.47842 15.5618 6.49428 12.2394 8.39002 9.41574L4.63806 6.89674Z" fill="#FDB338"/>
</svg>
